<svg width="171" height="132" viewBox="0 0 171 132" fill="none" xmlns="http://www.w3.org/2000/svg">
<path id="%" d="M170.678 129.215C170.678 142.155 167.347 152.454 160.686 160.111C154.1 167.769 145.218 171.597 134.039 171.597C122.859 171.597 113.939 167.769 107.277 160.111C100.692 152.454 97.3991 142.155 97.3991 129.215C97.3991 116.351 100.692 106.128 107.277 98.5477C113.939 90.8906 122.859 87.062 134.039 87.062C145.295 87.062 154.215 90.8906 160.8 98.5477C167.386 106.128 170.678 116.351 170.678 129.215ZM124.046 147.132C126.496 151.497 129.827 153.679 134.039 153.679C138.25 153.679 141.581 151.497 144.031 147.132C146.482 142.768 147.707 136.795 147.707 129.215C147.707 121.558 146.52 115.623 144.146 111.412C141.772 107.124 138.403 104.98 134.039 104.98C129.827 104.98 126.496 107.162 124.046 111.527C121.672 115.815 120.486 121.711 120.486 129.215C120.486 136.719 121.672 142.691 124.046 147.132ZM73.2791 42.1527C73.2791 55.0933 69.9482 65.3922 63.2865 73.0494C56.7013 80.7065 47.819 84.5351 36.6395 84.5351C25.4601 84.5351 16.5395 80.7065 9.87774 73.0494C3.29258 65.3922 0 55.0933 0 42.1527C0 29.2887 3.29258 19.0663 9.87774 11.4857C16.5395 3.82858 25.4601 0 36.6395 0C47.8956 0 56.8162 3.82858 63.4013 11.4857C69.9865 19.0663 73.2791 29.2887 73.2791 42.1527ZM26.6469 60.0705C29.0972 64.4351 32.4281 66.6173 36.6395 66.6173C40.851 66.6173 44.1819 64.4351 46.6321 60.0705C49.0824 55.7059 50.3076 49.7333 50.3076 42.1527C50.3076 34.4955 49.1207 28.5612 46.747 24.3498C44.3733 20.0618 41.0041 17.9178 36.6395 17.9178C32.4281 17.9178 29.0972 20.1001 26.6469 24.4646C24.2732 28.7527 23.0864 34.6487 23.0864 42.1527C23.0864 49.6567 24.2732 55.6293 26.6469 60.0705ZM37.099 169.415H11.1412L132.201 3.67544H158.044L37.099 169.415Z" fill="#E0E0E0"/>
</svg>
