<svg width="45" height="48" viewBox="0 0 45 48" fill="none" xmlns="http://www.w3.org/2000/svg">
<g id="Group 1">
<g id="Union">
<path fill-rule="evenodd" clip-rule="evenodd" d="M22.2309 12.3896L0 0V3.5587L4.42126e-05 3.55873V17.1345V20.7371V21.5841L17.3981 31.4253V32.8191V35.0158V36.7732V36.7733L12.8289 39.6729L12.9063 43.7804L19.938 39.1616L20.5614 38.7503V38.7502V36.9929V33.2146L20.5614 33.2146V28.7651L2.89973 18.7747V5.17476L22.2309 15.9483V12.3896ZM7.8204 19.5948V12.6971V11.9502L10.808 13.5758V13.576L10.808 13.5758L22.231 19.9463V24.0762L10.808 17.7345V21.6159L7.82046 19.6388V19.5948L7.8204 19.5948ZM7.8204 47.1858V28.6893V27.9424L10.808 29.568V45.2087L7.8204 47.1858Z" fill="#9A2FE2"/>
<path fill-rule="evenodd" clip-rule="evenodd" d="M22.2309 12.3896L0 0V3.5587L4.42126e-05 3.55873V17.1345V20.7371V21.5841L17.3981 31.4253V32.8191V35.0158V36.7732V36.7733L12.8289 39.6729L12.9063 43.7804L19.938 39.1616L20.5614 38.7503V38.7502V36.9929V33.2146L20.5614 33.2146V28.7651L2.89973 18.7747V5.17476L22.2309 15.9483V12.3896ZM7.8204 19.5948V12.6971V11.9502L10.808 13.5758V13.576L10.808 13.5758L22.231 19.9463V24.0762L10.808 17.7345V21.6159L7.82046 19.6388V19.5948L7.8204 19.5948ZM7.8204 47.1858V28.6893V27.9424L10.808 29.568V45.2087L7.8204 47.1858Z" fill="url(#paint0_linear_133_407)"/>
</g>
<g id="Union_2">
<path fill-rule="evenodd" clip-rule="evenodd" d="M22.231 12.3895L44.4619 -1.52588e-05V3.55869L44.4619 3.55871V17.1345V20.7371V21.5841L27.0638 31.4253V32.8191V35.0158V36.7732V36.7732L31.633 39.6729L31.5557 43.7804L24.5239 39.1616L23.9005 38.7503V38.7502V36.9928V33.2146L23.9005 33.2146V28.765L41.5622 18.7747V5.17474L22.231 15.9482V12.3895ZM36.6415 19.5948V12.6971V11.9502L33.654 13.5758V13.576L33.6539 13.5758L22.2309 19.9463V24.0762L33.6539 17.7345V21.6159L36.6415 19.6388V19.5948L36.6415 19.5948ZM36.6415 47.1858V28.6893V27.9424L33.654 29.568V45.2087L36.6415 47.1858Z" fill="#9A2FE2"/>
<path fill-rule="evenodd" clip-rule="evenodd" d="M22.231 12.3895L44.4619 -1.52588e-05V3.55869L44.4619 3.55871V17.1345V20.7371V21.5841L27.0638 31.4253V32.8191V35.0158V36.7732V36.7732L31.633 39.6729L31.5557 43.7804L24.5239 39.1616L23.9005 38.7503V38.7502V36.9928V33.2146L23.9005 33.2146V28.765L41.5622 18.7747V5.17474L22.231 15.9482V12.3895ZM36.6415 19.5948V12.6971V11.9502L33.654 13.5758V13.576L33.6539 13.5758L22.2309 19.9463V24.0762L33.6539 17.7345V21.6159L36.6415 19.6388V19.5948L36.6415 19.5948ZM36.6415 47.1858V28.6893V27.9424L33.654 29.568V45.2087L36.6415 47.1858Z" fill="url(#paint1_linear_133_407)"/>
</g>
</g>
<defs>
<linearGradient id="paint0_linear_133_407" x1="11.1155" y1="0" x2="11.6279" y2="78.7025" gradientUnits="userSpaceOnUse">
<stop stop-color="#DB65EF"/>
<stop offset="0.497396" stop-color="#8A24C2"/>
<stop offset="1" stop-color="#4C1093"/>
</linearGradient>
<linearGradient id="paint1_linear_133_407" x1="33.3465" y1="-1.52588e-05" x2="32.834" y2="78.7024" gradientUnits="userSpaceOnUse">
<stop stop-color="#DB65EF"/>
<stop offset="0.497396" stop-color="#8A24C2"/>
<stop offset="1" stop-color="#4C1093"/>
</linearGradient>
</defs>
</svg>
